<svg version="1.1" xmlns="http://www.w3.org/2000/svg" xmlns:xlink="http://www.w3.org/1999/xlink" width="1280" height="250" viewBox="0 0 1280 250">
  <style>
    path {
      stroke-dasharray: 1000;
      stroke-dashoffset: 1000;
      animation: letsMove 20s infinite;
    }
    
    @keyframes letsMove {
      0%, 100% {
        opacity: 0.058823529411764705;
      }
      50% {
        opacity: 0.088823529411764705;
        stroke-dashoffset: 0;
      }
      
    }
    rect {
      stroke: rgb(255,255,255);
    }
    path {
      stroke: rgb(0,0,0);
    }
    @media (prefers-color-scheme: dark) {
      rect {
        fill: rgb(34, 39, 46);
      }
      path {
        stroke: rgb(255,255,255);
      }
    }
  </style>
  <defs />
  <g>
    <rect fill="none" stroke-width="1" width="1280" height="250" y="0" x="0" stroke-linecap="null" stroke-linejoin="null" stroke-dasharray="null"/>
    <path fill="none" paint-order="fill stroke markers" d=" M 200.70449807569833 1264.1668024640508 C 410 20 440 300 47.90847358204657 1279.103114748392" stroke-linecap="round" stroke-miterlimit="10" stroke-dasharray="" />
    <path fill="none" paint-order="fill stroke markers" d=" M -1275.4931670651329 -107.3181288047698 C 410 20 440 300 -901.5898122102452 -908.5900123370798" stroke-linecap="round" stroke-miterlimit="10" stroke-dasharray="" />
    <path fill="none" paint-order="fill stroke markers" d=" M -679.8400796754657 1084.5355992621248 C 410 20 440 300 -1035.284907588851 -752.718513203139" stroke-linecap="round" stroke-miterlimit="10" stroke-dasharray="" />
    <path fill="none" paint-order="fill stroke markers" d=" M 1261.354610425948 217.67991813027845 C 410 20 440 300 -934.4424712795694 -874.7669791829885" stroke-linecap="round" stroke-miterlimit="10" stroke-dasharray="" />
    <path fill="none" paint-order="fill stroke markers" d=" M 1253.1321456226663 260.8827813542566 C 410 20 440 300 -1201.3423691808864 441.78785860507156" stroke-linecap="round" stroke-miterlimit="10" stroke-dasharray="" />
    <path fill="none" paint-order="fill stroke markers" d=" M 789.7135836305722 1007.3492223798851 C 410 20 440 300 863.1222354869867 945.2089750991295" stroke-linecap="round" stroke-miterlimit="10" stroke-dasharray="" />
    <path fill="none" paint-order="fill stroke markers" d=" M -902.227746082368 -907.9565486294653 C 410 20 440 300 -374.12026863093183 -1224.1053976678313" stroke-linecap="round" stroke-miterlimit="10" stroke-dasharray="" />
    <path fill="none" paint-order="fill stroke markers" d=" M 542.9807254986326 1159.125503013793 C 410 20 440 300 578.1081797446915 -1142.0117917571079" stroke-linecap="round" stroke-miterlimit="10" stroke-dasharray="" />
    <path fill="none" paint-order="fill stroke markers" d=" M 255.01476034881938 -1254.3394564487853 C 410 20 440 300 1116.9322798869687 -625.1897968989081" stroke-linecap="round" stroke-miterlimit="10" stroke-dasharray="" />
    <path fill="none" paint-order="fill stroke markers" d=" M -1041.5254530078314 744.0596284820402 C 410 20 440 300 1138.292132710953 585.3981727067062" stroke-linecap="round" stroke-miterlimit="10" stroke-dasharray="" />
    <path fill="none" paint-order="fill stroke markers" d=" M -1230.3387319492513 -353.0815835830418 C 410 20 440 300 1276.208248206031 98.4505317958893" stroke-linecap="round" stroke-miterlimit="10" stroke-dasharray="" />
    <path fill="none" paint-order="fill stroke markers" d=" M -1180.250985406607 -495.38632545391624 C 410 20 440 300 -166.2681782805258 1269.1551886555383" stroke-linecap="round" stroke-miterlimit="10" stroke-dasharray="" />
    <path fill="none" paint-order="fill stroke markers" d=" M 341.2599793391707 1233.6699828160806 C 410 20 440 300 -1181.6266862697732 -492.09589949024667" stroke-linecap="round" stroke-miterlimit="10" stroke-dasharray="" />
    <path fill="none" paint-order="fill stroke markers" d=" M -29.140359949883003 1279.668253658733 C 410 20 440 300 -1092.2904887645816 -667.3091398702936" stroke-linecap="round" stroke-miterlimit="10" stroke-dasharray="" />
    <path fill="none" paint-order="fill stroke markers" d=" M 1277.7282056123784 76.22750542010176 C 410 20 440 300 523.1181617367898 -1168.2240319652399" stroke-linecap="round" stroke-miterlimit="10" stroke-dasharray="" />
    <path fill="none" paint-order="fill stroke markers" d=" M -830.3439860377979 974.1297987695795 C 410 20 440 300 816.834510201086 985.4853539979943" stroke-linecap="round" stroke-miterlimit="10" stroke-dasharray="" />
    <path fill="none" paint-order="fill stroke markers" d=" M -1210.151826753205 417.05222239652574 C 410 20 440 300 -768.111900917871 -1023.9160647574266" stroke-linecap="round" stroke-miterlimit="10" stroke-dasharray="" />
    <path fill="none" paint-order="fill stroke markers" d=" M -920.1724130530033 -889.7655479148499 C 410 20 440 300 -397.9299055380849 -1216.5737915467566" stroke-linecap="round" stroke-miterlimit="10" stroke-dasharray="" />
    <path fill="none" paint-order="fill stroke markers" d=" M 1279.6710363902644 -29.017901782628186 C 410 20 440 300 961.2936278232532 845.1713205654867" stroke-linecap="round" stroke-miterlimit="10" stroke-dasharray="" />
    <path fill="none" paint-order="fill stroke markers" d=" M -960.4974889169762 846.075985821713 C 410 20 440 300 1230.4089631015531 -352.8367661105642" stroke-linecap="round" stroke-miterlimit="10" stroke-dasharray="" />
    <path fill="none" paint-order="fill stroke markers" d=" M -1273.0252454866454 133.44183884249478 C 410 20 440 300 1253.369528462467 -259.73991822931805" stroke-linecap="round" stroke-miterlimit="10" stroke-dasharray="" />
    <path fill="none" paint-order="fill stroke markers" d=" M 1173.422466426114 -511.3508729692903 C 410 20 440 300 -606.5499178079882 -1127.1633409613369" stroke-linecap="round" stroke-miterlimit="10" stroke-dasharray="" />
    <path fill="none" paint-order="fill stroke markers" d=" M -822.1357272162263 981.0671975123043 C 410 20 440 300 -1149.904154166415 -562.2458859172042" stroke-linecap="round" stroke-miterlimit="10" stroke-dasharray="" />
    <path fill="none" paint-order="fill stroke markers" d=" M 1278.5093148651376 -61.75703849017036 C 410 20 440 300 -560.6919759481164 1150.6626387031938" stroke-linecap="round" stroke-miterlimit="10" stroke-dasharray="" />
    <path fill="none" paint-order="fill stroke markers" d=" M -420.2764654844606 1209.0358524708392 C 410 20 440 300 296.3745291536138 1245.2156995753683" stroke-linecap="round" stroke-miterlimit="10" stroke-dasharray="" />
    <path fill="none" paint-order="fill stroke markers" d=" M 1051.1803691214059 730.3559622360762 C 410 20 440 300 1058.312014969914 719.9831101979553" stroke-linecap="round" stroke-miterlimit="10" stroke-dasharray="" />
    <path fill="none" paint-order="fill stroke markers" d=" M 1261.202569135784 -218.55909865594322 C 410 20 440 300 -902.113426751316 -908.070132354874" stroke-linecap="round" stroke-miterlimit="10" stroke-dasharray="" />
    <path fill="none" paint-order="fill stroke markers" d=" M 262.5049897003321 1252.7933310735766 C 410 20 440 300 991.7513318856984 809.215234472846" stroke-linecap="round" stroke-miterlimit="10" stroke-dasharray="" />
    <path fill="none" paint-order="fill stroke markers" d=" M -858.9202057668297 949.0290196434812 C 410 20 440 300 842.5970645535781 -963.5508221187366" stroke-linecap="round" stroke-miterlimit="10" stroke-dasharray="" />
    <path fill="none" paint-order="fill stroke markers" d=" M 1217.9779785208211 393.61103114411594 C 410 20 440 300 555.6241280884789 1153.1183062834089" stroke-linecap="round" stroke-miterlimit="10" stroke-dasharray="" />
    <path fill="none" paint-order="fill stroke markers" d=" M 1161.8573537172947 -537.1103141935043 C 410 20 440 300 -1204.758059197483 432.38642300460197" stroke-linecap="round" stroke-miterlimit="10" stroke-dasharray="" />
    <path fill="none" paint-order="fill stroke markers" d=" M 444.6943401648266 -1200.269529657972 C 410 20 440 300 1115.505030150693 627.7328474028592" stroke-linecap="round" stroke-miterlimit="10" stroke-dasharray="" />
    <path fill="none" paint-order="fill stroke markers" d=" M -1263.674905883854 -203.77863538514706 C 410 20 440 300 1212.2218644576471 -410.99653445111386" stroke-linecap="round" stroke-miterlimit="10" stroke-dasharray="" />
    <path fill="none" paint-order="fill stroke markers" d=" M -1058.482163608102 -719.7329430584035 C 410 20 440 300 -123.60635514164066 -1274.0178448391523" stroke-linecap="round" stroke-miterlimit="10" stroke-dasharray="" />
    <path fill="none" paint-order="fill stroke markers" d=" M -806.5886115278947 -993.88873207895 C 410 20 440 300 -1015.0783424026674 -779.7537808725605" stroke-linecap="round" stroke-miterlimit="10" stroke-dasharray="" />
    <path fill="none" paint-order="fill stroke markers" d=" M -9.602495487260557 -1279.963980774622 C 410 20 440 300 1100.0297756030102 -654.4726829950895" stroke-linecap="round" stroke-miterlimit="10" stroke-dasharray="" />
    <path fill="none" paint-order="fill stroke markers" d=" M -1034.725256655054 -753.4876530110714 C 410 20 440 300 937.9314912075284 871.0249811579583" stroke-linecap="round" stroke-miterlimit="10" stroke-dasharray="" />
    <path fill="none" paint-order="fill stroke markers" d=" M -1263.1564691232452 -206.96795527833774 C 410 20 440 300 -154.79727345332205 1270.6052904546782" stroke-linecap="round" stroke-miterlimit="10" stroke-dasharray="" />
    <path fill="none" paint-order="fill stroke markers" d=" M 1163.759433048197 532.976530432006 C 410 20 440 300 1161.0437156123774 -538.8668578016329" stroke-linecap="round" stroke-miterlimit="10" stroke-dasharray="" />
    <path fill="none" paint-order="fill stroke markers" d=" M -1067.1577896933509 706.8056677028007 C 410 20 440 300 1162.5153835157619 -535.6845929175125" stroke-linecap="round" stroke-miterlimit="10" stroke-dasharray="" />
    <path fill="none" paint-order="fill stroke markers" d=" M 292.48842325121007 1246.134231238361 C 410 20 440 300 -205.82108166624448 -1263.343849607753" stroke-linecap="round" stroke-miterlimit="10" stroke-dasharray="" />
    <path fill="none" paint-order="fill stroke markers" d=" M -1279.4973573423817 -35.8679878702657 C 410 20 440 300 730.2797791177027 -1051.2332967575749" stroke-linecap="round" stroke-miterlimit="10" stroke-dasharray="" />
    <path fill="none" paint-order="fill stroke markers" d=" M -1230.314848023153 -353.1647982652942 C 410 20 440 300 -393.4444353992578 1218.0318042864724" stroke-linecap="round" stroke-miterlimit="10" stroke-dasharray="" />
    <path fill="none" paint-order="fill stroke markers" d=" M 1031.2921878057382 -758.1796774979226 C 410 20 440 300 -1183.6070237119454 487.3134652559383" stroke-linecap="round" stroke-miterlimit="10" stroke-dasharray="" />
    <path fill="none" paint-order="fill stroke markers" d=" M -1214.6443007787539 -403.78115679869506 C 410 20 440 300 -944.0605708998078 864.3781802384468" stroke-linecap="round" stroke-miterlimit="10" stroke-dasharray="" />
    <path fill="none" paint-order="fill stroke markers" d=" M 1254.3523897143907 254.95113731418743 C 410 20 440 300 227.35948906944432 -1259.6458481375157" stroke-linecap="round" stroke-miterlimit="10" stroke-dasharray="" />
    <path fill="none" paint-order="fill stroke markers" d=" M -1245.6651059005937 -294.4799550761696 C 410 20 440 300 -1279.972747197469 8.352630230286028" stroke-linecap="round" stroke-miterlimit="10" stroke-dasharray="" />
    <path fill="none" paint-order="fill stroke markers" d=" M -678.3691641834606 -1085.4562529577288 C 410 20 440 300 436.53548698241866 1203.2608896681645" stroke-linecap="round" stroke-miterlimit="10" stroke-dasharray="" />
    <path fill="none" paint-order="fill stroke markers" d=" M 88.18358267325385 -1276.9587525628654 C 410 20 440 300 -215.6104314699283 -1261.7100070306772" stroke-linecap="round" stroke-miterlimit="10" stroke-dasharray="" />
    <path fill="none" paint-order="fill stroke markers" d=" M 923.8851919175706 885.909787820088 C 410 20 440 300 -497.0559648668939 1179.5487983929454" stroke-linecap="round" stroke-miterlimit="10" stroke-dasharray="" />
    <path fill="none" paint-order="fill stroke markers" d=" M 1212.3099100975778 410.7367549650295 C 410 20 440 300 -1145.497035930472 571.1712008448108" stroke-linecap="round" stroke-miterlimit="10" stroke-dasharray="" />
    <path fill="none" paint-order="fill stroke markers" d=" M 1008.1013238513736 -788.7532699451127 C 410 20 440 300 -347.0168786168679 1232.063020285491" stroke-linecap="round" stroke-miterlimit="10" stroke-dasharray="" />
    <path fill="none" paint-order="fill stroke markers" d=" M -1067.9022167021292 -705.6804202772519 C 410 20 440 300 1087.180683468819 -675.6020733333128" stroke-linecap="round" stroke-miterlimit="10" stroke-dasharray="" />
    <path fill="none" paint-order="fill stroke markers" d=" M -0.4004811100153808 1279.9999373495612 C 410 20 440 300 1264.5636473653824 198.18875286443728" stroke-linecap="round" stroke-miterlimit="10" stroke-dasharray="" />
    <path fill="none" paint-order="fill stroke markers" d=" M -135.09596388925243 -1272.8507691559266 C 410 20 440 300 1265.711127652824 -190.72320607575946" stroke-linecap="round" stroke-miterlimit="10" stroke-dasharray="" />
    <path fill="none" paint-order="fill stroke markers" d=" M -728.5444925314487 1052.4366595677357 C 410 20 440 300 -502.32321245960327 -1177.3153316865726" stroke-linecap="round" stroke-miterlimit="10" stroke-dasharray="" />
    <path fill="none" paint-order="fill stroke markers" d=" M 744.5772145865628 1041.1554982415046 C 410 20 440 300 -948.7301679927932 859.2502943498863" stroke-linecap="round" stroke-miterlimit="10" stroke-dasharray="" />
    <path fill="none" paint-order="fill stroke markers" d=" M -32.66308806955207 1279.5831831802732 C 410 20 440 300 1248.7646856495808 281.0458323379012" stroke-linecap="round" stroke-miterlimit="10" stroke-dasharray="" />
    <path fill="none" paint-order="fill stroke markers" d=" M 766.2270560716769 -1025.3273128829305 C 410 20 440 300 1267.584554087565 177.8465581298355" stroke-linecap="round" stroke-miterlimit="10" stroke-dasharray="" />
    <path fill="none" paint-order="fill stroke markers" d=" M 500.24630693246564 -1178.1993177728586 C 410 20 440 300 -656.2550907265012 1098.9673588854" stroke-linecap="round" stroke-miterlimit="10" stroke-dasharray="" />
    <path fill="none" paint-order="fill stroke markers" d=" M -1234.0733483102142 -339.7984269981499 C 410 20 440 300 -638.9334914294301 1109.1275821697873" stroke-linecap="round" stroke-miterlimit="10" stroke-dasharray="" />
    <path fill="none" paint-order="fill stroke markers" d=" M 776.1539998633698 1017.8334679583356 C 410 20 440 300 949.7424496049156 -858.1312716702814" stroke-linecap="round" stroke-miterlimit="10" stroke-dasharray="" />
    <path fill="none" paint-order="fill stroke markers" d=" M 1240.7618776261031 -314.49954376715226 C 410 20 440 300 1279.9867276471398 5.828983373370362" stroke-linecap="round" stroke-miterlimit="10" stroke-dasharray="" />
    <path fill="none" paint-order="fill stroke markers" d=" M 119.17349532659128 -1274.440142969313 C 410 20 440 300 -392.15799280218704 1218.4465965652166" stroke-linecap="round" stroke-miterlimit="10" stroke-dasharray="" />
  </g>
</svg>