<svg xmlns="http://www.w3.org/2000/svg" width="1280" height="250"><g fill="none" stroke="#000" paint-order="fill stroke markers" stroke-opacity=".059" stroke-linecap="round" stroke-miterlimit="10"><path d="M-262.423 1252.81C410 20 440 300-112.435-1275.051M-265.345-1252.195C410 20 440 300 251.127 1255.124M118.95 1274.461C410 20 440 300-1246.33 291.66M1209.232-419.713C410 20 440 300 14.69-1279.916M198.022 1264.59C410 20 440 300 598.214 1131.61M-927.645 881.972C410 20 440 300-1279.515 35.209M1115.162 628.341C410 20 440 300 715.073 1061.636M-1257.685 237.966C410 20 440 300 1131.94-597.59M1200.223-444.82C410 20 440 300 252.307 1254.886M301.48 1243.99C410 20 440 300-555.63-1153.116M1189.4 472.999C410 20 440 300-375.183 1223.78M284.147 1248.063C410 20 440 300-487.66-1183.465M896.53 913.583C410 20 440 300-1270.09-158.965M614.848-1122.658C410 20 440 300-196.634 1264.806M-775.394 1018.412C410 20 440 300 681.163-1083.705M892.805-917.223C410 20 440 300 1126.137 608.452M-1199.279-447.359C410 20 440 300-1186.829 479.415M675.87-1087.014C410 20 440 300 1256.189-245.75M536.832 1161.986C410 20 440 300-724.922-1054.935M1274.648 116.933C410 20 440 300-569.638 1146.26M-125.943 1273.789C410 20 440 300 725.497 1054.54M372.253 1224.675C410 20 440 300 1037.423-749.768M-1252.243-265.119C410 20 440 300 14.762-1279.915M-960.851 845.674C410 20 440 300-318.908 1239.636M1255.197 250.76C410 20 440 300 665.82 1093.2M-423.383 1207.951C410 20 440 300 1210.543 415.916M-116.69-1274.67C410 20 440 300-641.215 1107.81M-1270.045-159.33C410 20 440 300-133.173 1273.053M-895.194 914.892C410 20 440 300-957.172 849.836M1251.056-270.663C410 20 440 300 1198.813-448.605M-1204.149 434.08C410 20 440 300-702.307 1070.124M-34.574-1279.533C410 20 440 300 448.43-1198.879M462.95 1193.347C410 20 440 300-1258.592-233.123M-360.75 1228.112C410 20 440 300-1231.403-349.35M1238.445-323.504C410 20 440 300-1105.343-645.458M157.009-1270.334C410 20 440 300 1175.31 506.995M-1175.88-505.676C410 20 440 300 708.844-1065.806M958.745-848.061C410 20 440 300 345.022-1232.623M-205.063-1263.467C410 20 440 300 126.48-1273.736M-1149.318-563.442C410 20 440 300 1248.427 282.54M1271.916-143.63C410 20 440 300-1278.782-55.82M1036.387 751.2C410 20 440 300 572.075-1145.045M-1225.787-368.572C410 20 440 300 202.674 1263.852M238.606-1257.564C410 20 440 300 1013.806-781.408M-489.61 1182.659C410 20 440 300 1047.015-736.314M898.671-911.477C410 20 440 300 983.961-818.67M-966.641 839.05C410 20 440 300 74.236-1277.845M1241.857-310.147C410 20 440 300 87.483 1277.007M1167.225 525.343C410 20 440 300-1230.31 353.181M40.057 1279.373C410 20 440 300 255.96 1254.147M502.553 1177.217C410 20 440 300-760.707 1029.43M818.796 983.857C410 20 440 300-1275.784-103.804"/></g></svg>